<svg width="26" height="26" viewBox="0 0 26 26" fill="none" xmlns="http://www.w3.org/2000/svg">
<path d="M3.59021 8.35352L12.1824 12.5023C12.4058 12.609 12.7054 12.6648 13 12.6648C13.2945 12.6648 13.5941 12.609 13.8176 12.5023L22.4097 8.35352C22.8617 8.13516 22.8617 7.77969 22.4097 7.56133L13.8176 3.4125C13.5941 3.30586 13.2945 3.25 13 3.25C12.7054 3.25 12.4058 3.30586 12.1824 3.4125L3.59021 7.56133C3.13826 7.77969 3.13826 8.13516 3.59021 8.35352Z" fill="#34AA44"/>
<path d="M22.4098 12.6039C22.4098 12.6039 20.8407 11.8473 20.6325 11.7457C20.4243 11.6441 20.3684 11.6492 20.15 11.7508C19.9317 11.8523 13.8125 14.8078 13.8125 14.8078C13.584 14.9145 13.2895 14.9703 12.995 14.9703C12.7004 14.9703 12.4008 14.9145 12.1774 14.8078C12.1774 14.8078 6.22075 11.9336 5.94145 11.7965C5.63676 11.6492 5.55043 11.6492 5.27622 11.7813L3.58012 12.5988C3.12817 12.8172 3.12817 13.1727 3.58012 13.391L12.1723 17.5398C12.3957 17.6465 12.6954 17.7023 12.9899 17.7023C13.2844 17.7023 13.584 17.6465 13.8075 17.5398L22.3997 13.391C22.8618 13.1777 22.8618 12.8223 22.4098 12.6039Z" fill="#34AA44"/>
<path d="M22.4097 17.6465C22.4097 17.6465 20.8406 16.8898 20.6324 16.7883C20.4242 16.6867 20.3683 16.6918 20.15 16.7934C19.9316 16.8949 13.8175 19.8555 13.8175 19.8555C13.589 19.9621 13.2945 20.018 13 20.018C12.7054 20.018 12.4058 19.9621 12.1824 19.8555C12.1824 19.8555 6.22574 16.9812 5.94644 16.8441C5.64175 16.6969 5.55542 16.6969 5.28121 16.8289L3.58511 17.6465C3.13316 17.8648 3.13316 18.2203 3.58511 18.4387L12.1773 22.5875C12.4007 22.6992 12.7003 22.75 12.9949 22.75C13.2894 22.75 13.589 22.6941 13.8125 22.5875L22.4046 18.4387C22.8617 18.2203 22.8617 17.8648 22.4097 17.6465Z" fill="#34AA44"/>
</svg>
