<svg width="28" height="28" viewBox="0 0 28 28" fill="none" xmlns="http://www.w3.org/2000/svg">
<path d="M19.0914 18.3039C18.4789 18.0851 17.4781 18.0742 17.0352 17.9047C16.7289 17.7844 16.2422 17.6531 16.0836 17.4617C15.925 17.2703 15.925 15.9031 15.925 15.9031C15.925 15.9031 16.3078 15.5422 16.4664 15.1375C16.625 14.7383 16.7289 13.6336 16.7289 13.6336C16.7289 13.6336 17.0898 13.7867 17.232 13.0648C17.3523 12.4414 17.582 12.1133 17.5219 11.6539C17.4563 11.1945 17.2047 11.3039 17.2047 11.3039C17.2047 11.3039 17.5219 10.8391 17.5219 9.25858C17.5219 7.62889 16.2914 6.02655 13.9891 6.02655C11.6922 6.02655 10.4508 7.63436 10.4508 9.25858C10.4508 10.8391 10.7625 11.3039 10.7625 11.3039C10.7625 11.3039 10.5055 11.1945 10.4453 11.6539C10.3797 12.1133 10.6094 12.4414 10.7352 13.0648C10.8773 13.7922 11.2383 13.6336 11.2383 13.6336C11.2383 13.6336 11.3422 14.7328 11.5008 15.1375C11.6594 15.5422 12.0422 15.9031 12.0422 15.9031C12.0422 15.9031 12.0422 17.2703 11.8836 17.4617C11.725 17.6531 11.2383 17.7844 10.932 17.8992C10.4945 18.0687 9.49375 18.0906 8.87578 18.3094C8.26328 18.5281 6.37109 19.5234 6.37109 21.9844H21.5906C21.5961 19.518 19.7039 18.5226 19.0914 18.3039Z" fill="#F6AB2F"/>
<path d="M7.65625 15.6406C7.65625 15.6406 8.96328 15.5969 9.48281 15.132C8.63516 13.8469 9.09453 12.3484 8.91953 10.9484C8.74453 9.55391 7.95156 8.71719 6.36562 8.71719H6.34375C4.8125 8.71719 3.98672 9.54844 3.81172 10.9484C3.63672 12.343 4.12344 14.0109 3.25391 15.132C3.77344 15.6024 5.08594 15.5859 5.08594 15.5859C5.08594 15.5859 5.14062 16.3734 5.03125 16.5047C4.92188 16.6359 4.59922 16.7617 4.375 16.8055C3.89375 16.9094 3.38516 17.0516 2.95859 17.1992C2.53203 17.3469 1.72266 18.1399 1.72266 19.2336H6.11406C6.23438 18.7961 7.06016 18.0141 7.86406 17.6039C8.35625 17.3524 8.84297 17.3688 9.21484 17.3195C9.21484 17.3195 9.42266 16.9914 8.73906 16.8656C8.73906 16.8656 7.79844 16.6305 7.68906 16.4992C7.58516 16.3789 7.65625 15.6406 7.65625 15.6406ZM20.3438 15.6406C20.3438 15.6406 19.0367 15.5969 18.5172 15.132C19.3648 13.8469 18.9055 12.3484 19.0805 10.9484C19.2555 9.55391 20.0484 8.71719 21.6344 8.71719H21.6562C23.1875 8.71719 24.0133 9.54844 24.1883 10.9484C24.3633 12.343 23.8766 14.0109 24.7461 15.132C24.2266 15.6024 22.9141 15.5859 22.9141 15.5859C22.9141 15.5859 22.8594 16.3734 22.9688 16.5047C23.0781 16.6359 23.4008 16.7617 23.625 16.8055C24.1063 16.9094 24.6148 17.0516 25.0414 17.1992C25.468 17.3469 26.2773 18.1399 26.2773 19.2336H21.8859C21.7656 18.7961 20.9398 18.0141 20.1359 17.6039C19.6438 17.3524 19.157 17.3688 18.7852 17.3195C18.7852 17.3195 18.5773 16.9914 19.2609 16.8656C19.2609 16.8656 20.2016 16.6305 20.3109 16.4992C20.4148 16.3789 20.3438 15.6406 20.3438 15.6406Z" fill="#F6AB2F"/>
</svg>
