<svg width="26" height="26" viewBox="0 0 26 26" fill="none" xmlns="http://www.w3.org/2000/svg">
<path d="M22.0695 13.8176C20.932 13.7566 19.957 14.4879 19.6219 15.4883H17.6465L16.2043 11.1516C16.0926 10.8164 15.7828 10.593 15.4324 10.593H15.4172C15.0617 10.598 14.752 10.8367 14.6555 11.182L12.3957 19.0684L9.73984 3.11797C9.67891 2.73711 9.35391 2.45273 8.96797 2.4375C8.58203 2.42226 8.2418 2.68125 8.14531 3.05195L5.45391 15.4883H2.4375C1.99062 15.4883 1.625 15.8539 1.625 16.3008C1.625 16.7477 1.99062 17.1133 2.4375 17.1133H6.09375C6.46445 17.1133 6.79453 16.8594 6.88086 16.4988L8.78008 7.24648L11.3852 22.882C11.4461 23.2578 11.7609 23.5371 12.1418 23.5574H12.1875C12.548 23.5574 12.868 23.3187 12.9695 22.9684L15.4934 14.1527L16.2906 16.5547C16.4023 16.8848 16.7121 17.1133 17.0625 17.1133H19.6574C20.0078 18.0273 20.8965 18.6875 21.9375 18.6875C23.3086 18.6875 24.4156 17.5551 24.375 16.1738C24.3344 14.9145 23.3238 13.8836 22.0695 13.8176Z" fill="#1665D8"/>
</svg>
