<svg width="24" height="24" viewBox="0 0 24 24" fill="none" xmlns="http://www.w3.org/2000/svg">
<path fill-rule="evenodd" clip-rule="evenodd" d="M11 3.75C6.99594 3.75 3.75 6.99594 3.75 11C3.75 15.0041 6.99594 18.25 11 18.25C15.0041 18.25 18.25 15.0041 18.25 11C18.25 6.99594 15.0041 3.75 11 3.75ZM2.25 11C2.25 6.16751 6.16751 2.25 11 2.25C15.8325 2.25 19.75 6.16751 19.75 11C19.75 15.8325 15.8325 19.75 11 19.75C6.16751 19.75 2.25 15.8325 2.25 11Z" fill="#333333"/>
<path fill-rule="evenodd" clip-rule="evenodd" d="M16.1197 16.1197C16.4126 15.8268 16.8874 15.8268 17.1803 16.1197L21.5303 20.4697C21.8232 20.7626 21.8232 21.2375 21.5303 21.5304C21.2374 21.8232 20.7626 21.8232 20.4697 21.5304L16.1197 17.1804C15.8268 16.8875 15.8268 16.4126 16.1197 16.1197Z" fill="#363636"/>
</svg>
